# xmcd
#
# Track frame offsets: 
#        150
#        14681
#        25197
#        43184
#        54985
#        69176
#        83364
#        98146
#        103362
#        117766
#        132874
#        144672
#        160093
#
# Disc length: 2303 seconds
#
# Revision: 0
# Processed by: cddbd v1.5.2PL0 Copyright (c) Steve Scherf et al.
# Submitted via: ExactAudioCopyFreeDBPlugin 1.0
#
DISCID=a508fd0d
DTITLE=Godiego - CM Song Graffiti Godiego Super Hits
DYEAR=1978
DGENRE=JPop
TTITLE0=Mirage
TTITLE1=The Morning After
TTITLE2=Now Your Days
TTITLE3=In Your Eyes
TTITLE4=Uncle John
TTITLE5=Salad Girl
TTITLE6=Sprinter Liftback
TTITLE7=What Did You Do For Tomorrow
TTITLE8=Symfonica
TTITLE9=Smile
TTITLE10=Apple Candy
TTITLE11=Lyric
TTITLE12=Red Chapeau
EXTD=Year: 2008
EXTT0=
EXTT1=
EXTT2=
EXTT3=
EXTT4=
EXTT5=
EXTT6=
EXTT7=
EXTT8=
EXTT9=
EXTT10=
EXTT11=
EXTT12=
PLAYORDER=
